<svg xmlns="http://www.w3.org/2000/svg" xmlns:xlink="http://www.w3.org/1999/xlink" width="419.914" height="403.356" viewBox="0 0 419.914 403.356">
  <defs>
    <clipPath id="clip-path">
      <rect id="Retângulo_145" data-name="Retângulo 145" width="419.914" height="403.356" fill="none"/>
    </clipPath>
    <clipPath id="clip-path-2">
      <rect id="Retângulo_146" data-name="Retângulo 146" width="148.086" height="38.358" fill="none"/>
    </clipPath>
    <clipPath id="clip-path-3">
      <path id="Caminho_17569" data-name="Caminho 17569" d="M221.345,81.379a18.139,18.139,0,0,0,2.354,8.963h31.73a18.22,18.22,0,1,0-34.084-8.963" transform="translate(-221.345 -63.16)" fill="none"/>
    </clipPath>
    <radialGradient id="radial-gradient" cx="0.5" cy="0.67" r="0.67" gradientTransform="translate(-12.09 24.381) rotate(180) scale(0.746 1)" gradientUnits="objectBoundingBox">
      <stop offset="0" stop-color="#fff"/>
      <stop offset="1" stop-color="#263f17"/>
    </radialGradient>
    <clipPath id="clip-path-5">
      <path id="Caminho_17575" data-name="Caminho 17575" d="M144.876,81.379a18.127,18.127,0,0,0,2.354,8.963h31.73a18.22,18.22,0,1,0-34.084-8.963" transform="translate(-144.876 -63.16)" fill="none"/>
    </clipPath>
    <radialGradient id="radial-gradient-2" cy="0.67" r="0.67" gradientTransform="translate(-7.913 24.381) rotate(180) scale(0.746 1)" xlink:href="#radial-gradient"/>
  </defs>
  <g id="bottriangulo" transform="translate(-598.813 -248.828)">
    <g id="marvin1" transform="translate(598.813 248.828)">
      <g id="Grupo_236" data-name="Grupo 236">
        <rect id="Retângulo_144" data-name="Retângulo 144" width="26.435" height="34.652" transform="translate(214.2 181.907)" fill="#3d751c"/>
        <path id="Caminho_17468" data-name="Caminho 17468" d="M187.208,158.878h28.046v36.263H187.208Zm26.435,1.61H188.818V193.53h24.826Z" transform="translate(26.187 22.224)" fill="#3d751c"/>
        <g id="Grupo_237" data-name="Grupo 237">
          <g id="Grupo_236-2" data-name="Grupo 236" clip-path="url(#clip-path)">
            <path id="Caminho_17469" data-name="Caminho 17469" d="M187.914,159.584v8.783a.871.871,0,0,0,.815.871c3.954.236,7.981.349,12.045.349q6.484,0,12.764-.39a.867.867,0,0,0,.81-.869v-8.744Z" transform="translate(26.286 22.323)" fill="#418e11"/>
            <path id="Caminho_17470" data-name="Caminho 17470" d="M188.83,171.041a2.481,2.481,0,0,1-2.329-2.478V158.171h29.656v10.355A2.485,2.485,0,0,1,213.837,171c-4.132.261-8.459.392-12.864.392-4.156,0-8.24-.119-12.143-.352m24.107-9.65H189.721v6.477a208.626,208.626,0,0,0,23.216-.038Z" transform="translate(26.088 22.126)" fill="#418e11"/>
            <path id="Caminho_17471" data-name="Caminho 17471" d="M187.914,175.642v8.9c4.215.271,8.516.4,12.86.4q6.9,0,13.575-.443v-8.858a.7.7,0,0,0-.7-.7H188.615a.7.7,0,0,0-.7.7" transform="translate(26.286 24.471)" fill="#418e11"/>
            <path id="Caminho_17472" data-name="Caminho 17472" d="M188.009,186.348l-1.508-.1V175.84a2.315,2.315,0,0,1,2.312-2.312h25.033a2.315,2.315,0,0,1,2.312,2.312V186.2l-1.5.1c-4.394.3-9,.446-13.683.446-4.442,0-8.8-.136-12.964-.4m24.928-9.6H189.721v6.476a207.821,207.821,0,0,0,23.216-.038Z" transform="translate(26.088 24.274)" fill="#418e11"/>
            <path id="Caminho_17473" data-name="Caminho 17473" d="M297.866,230.529c1.286.529,2.529,1.058,3.743,1.615a79.626,79.626,0,0,1,15.076,8.916,68.9,68.9,0,0,1,6.187,5.273,1.466,1.466,0,0,1,.214.214c.958.929,1.858,1.872,2.7,2.8q.622.686,1.2,1.371c.857,1,1.644,2,2.387,2.987a54.94,54.94,0,0,1,4.458,6.988c5.1,9.4,5.645,16.919,5.673,17.547l13.488-.671c-.028-.886-.742-12.788-9.145-26.564a69.754,69.754,0,0,0-6-8.4,72.976,72.976,0,0,0-5.915-6.345c-.415-.4-.844-.8-1.287-1.187-1.472-1.343-3.043-2.672-4.7-3.973-.429-.328-.857-.671-1.3-.985q-2.936-2.23-6.316-4.33a102.61,102.61,0,0,0-15.361-7.758l-1.214,2.985Z" transform="translate(41.667 30.498)" fill="#3d751c"/>
            <path id="Caminho_17474" data-name="Caminho 17474" d="M338.831,278.409c0-.075-.41-7.678-5.58-17.205a54.208,54.208,0,0,0-4.392-6.883c-.851-1.131-1.6-2.067-2.358-2.952q-.569-.675-1.181-1.35c-.914-1.008-1.786-1.912-2.665-2.763l-.211-.212a68.29,68.29,0,0,0-6.117-5.213,79.271,79.271,0,0,0-14.925-8.826c-1.2-.553-2.439-1.076-3.715-1.6l-.742-.306,5.707-13.992.747.3a103.8,103.8,0,0,1,15.482,7.821c2.242,1.391,4.389,2.861,6.357,4.357.336.238.665.494.99.747l.341.262c1.663,1.3,3.26,2.655,4.734,4,.453.4.893.8,1.313,1.21a74.458,74.458,0,0,1,5.977,6.412,71.326,71.326,0,0,1,6.071,8.5c8.765,14.368,9.258,26.833,9.262,26.957l.026.791-15.085.751Zm4.46-26.854a69.8,69.8,0,0,0-5.935-8.309,72.911,72.911,0,0,0-5.853-6.277c-.406-.392-.824-.782-1.27-1.171-1.458-1.33-3.025-2.655-4.65-3.928l-.34-.263c-.309-.239-.618-.48-.957-.72-1.95-1.481-4.055-2.923-6.252-4.286a101.676,101.676,0,0,0-14.5-7.392l-4.493,11.014c1.034.432,2.043.866,3.031,1.32a81.027,81.027,0,0,1,15.227,9.006,69.544,69.544,0,0,1,6.217,5.3,1.639,1.639,0,0,1,.259.255c.9.874,1.8,1.8,2.737,2.838.421.464.826.928,1.214,1.387.777.906,1.547,1.868,2.42,3.029a55.936,55.936,0,0,1,4.522,7.085,47.725,47.725,0,0,1,5.7,17.089l11.89-.593a61.537,61.537,0,0,0-8.971-25.382" transform="translate(41.538 30.37)" fill="#3d751c"/>
            <path id="Caminho_17475" data-name="Caminho 17475" d="M299.662,231.2a80.439,80.439,0,0,1,14.138,8.218.669.669,0,0,0,1.068-.46c.5-4.47,1.018-9.275,1.469-13.693a.672.672,0,0,0-.32-.647,102.836,102.836,0,0,0-15-7.535l-1.215,2.986Z" transform="translate(41.918 30.367)" fill="#418e11"/>
            <path id="Caminho_17476" data-name="Caminho 17476" d="M313.048,240.979a79.264,79.264,0,0,0-13.857-8.053l-.954-.437.161-12.484,1.937-4.759,1.491.606a104.847,104.847,0,0,1,15.233,7.654,2.27,2.27,0,0,1,1.08,2.183c-.451,4.424-.969,9.234-1.472,13.708a2.281,2.281,0,0,1-3.619,1.581M302.1,219.453l-.489,1.2-.125,9.786a82.985,82.985,0,0,1,12.16,7c.422-3.8.848-7.773,1.23-11.5a101.064,101.064,0,0,0-12.776-6.5" transform="translate(41.718 30.109)" fill="#418e11"/>
            <path id="Caminho_17477" data-name="Caminho 17477" d="M325.7,250.928a54.962,54.962,0,0,1,4.256,6.717l10.016-9.689A69.818,69.818,0,0,0,334.335,240a.452.452,0,0,0-.709,0c-2.4,3.144-5.469,7.152-7.935,10.4a.439.439,0,0,0,0,.53" transform="translate(45.547 33.548)" fill="#418e11"/>
            <path id="Caminho_17478" data-name="Caminho 17478" d="M328.731,258.6a53.465,53.465,0,0,0-4.136-6.524,2.04,2.04,0,0,1,.011-2.458c2.468-3.248,5.533-7.257,7.939-10.4a2.042,2.042,0,0,1,1.592-.8,1.993,1.993,0,0,1,1.64.76,72.115,72.115,0,0,1,5.763,8.14l.67,1.1-12.476,12.067Zm5.469-16.246c-2.056,2.69-4.444,5.815-6.5,8.516,1.016,1.418,1.963,2.876,2.833,4.36l7.58-7.332c-1.221-1.922-2.532-3.779-3.913-5.544" transform="translate(45.349 33.35)" fill="#418e11"/>
            <path id="Caminho_17479" data-name="Caminho 17479" d="M318.828,242.944a1.2,1.2,0,0,0,.346,1.1c.267.262.527.527.769.8a1.577,1.577,0,0,1,.214.214c.793.806,2.128,2.2,2.56,2.655a.123.123,0,0,0,.206-.048l4.528-13.3a1.236,1.236,0,0,0-.341-1.325c-1.183-1.057-4.341-3.6-5.214-4.275a.143.143,0,0,0-.228.092c-.965,4.8-2.037,10.081-2.842,14.1" transform="translate(44.596 31.995)" fill="#418e11"/>
            <path id="Caminho_17480" data-name="Caminho 17480" d="M321.752,249.038c-.43-.45-1.754-1.835-2.642-2.744l-.162-.157c-.223-.246-.46-.488-.707-.73a2.812,2.812,0,0,1-.795-2.559l2.842-14.091a1.747,1.747,0,0,1,1.1-1.307l.973-.3.711.546c.878.675,4.085,3.26,5.307,4.352a2.847,2.847,0,0,1,.791,3.042l-4.529,13.3a1.74,1.74,0,0,1-1.268,1.136l-1,.16Zm1.221-17.3-2.324,11.527c.213.212.422.427.621.645a3.072,3.072,0,0,1,.278.284c.245.25.538.549.837.859l3.664-10.763c-.729-.638-1.987-1.672-3.075-2.552" transform="translate(44.398 31.775)" fill="#418e11"/>
            <path id="Caminho_17481" data-name="Caminho 17481" d="M354.846,259.922c-3.62-9.747-11.564-24.72-13.4-24.276-1.477.357-3.939,3.814-5.069,4.906l-14.62,14.143a7.05,7.05,0,0,0-.356,9.784c6.464,7.168,10.784,16.2,14.431,25.344a7.071,7.071,0,0,0,6.473,4.461l15.35.206a4.043,4.043,0,0,0,4.039-4.782c-1.492-8-4.588-23.694-6.851-29.786" transform="translate(44.707 32.962)" fill="#77c457"/>
            <path id="Caminho_17482" data-name="Caminho 17482" d="M357.748,295.394l-15.35-.207a7.859,7.859,0,0,1-7.211-4.968c-3.279-8.219-7.539-17.628-14.28-25.1a7.822,7.822,0,0,1,.394-10.9l14.62-14.142c.315-.306.737-.8,1.216-1.366,1.655-1.944,3.017-3.453,4.222-3.743,3.091-.757,11.866,18.117,14.341,24.778,2.366,6.371,5.6,23.045,6.888,29.918a4.85,4.85,0,0,1-4.775,5.736Zm-19.385-55.644c-.519.609-.98,1.148-1.322,1.478l-14.62,14.143a6.22,6.22,0,0,0-.319,8.667c6.912,7.663,11.249,17.234,14.581,25.586a6.254,6.254,0,0,0,5.737,3.954l15.35.206a3.265,3.265,0,0,0,2.532-1.155,3.215,3.215,0,0,0,.7-2.675c-1.274-6.832-4.491-23.4-6.814-29.653-3.68-9.905-10.731-22.761-12.568-23.737-.824.327-2.339,2.1-3.26,3.186" transform="translate(44.607 32.864)" fill="#77c457"/>
            <path id="Caminho_17483" data-name="Caminho 17483" d="M369.306,310.988l-14.531-12.845-3.351,4.1,15.482,11.682a1.9,1.9,0,0,0,2.4-2.937" transform="translate(49.158 41.705)" fill="#0e2201"/>
            <path id="Caminho_17484" data-name="Caminho 17484" d="M366.562,314.71l-16.15-12.185,4.41-5.4,15.158,13.4a2.7,2.7,0,0,1-3.418,4.182m2.353-2.976-13.9-12.293-2.293,2.806,14.816,11.178a1.092,1.092,0,0,0,1.38-1.691Z" transform="translate(49.017 41.563)" fill="#0e2201"/>
            <path id="Caminho_17485" data-name="Caminho 17485" d="M367.071,328.325,353.8,302.539l-4.642,2.551,14.632,25.04a1.875,1.875,0,0,0,3.285-1.8" transform="translate(48.841 42.32)" fill="#0e2201"/>
            <path id="Caminho_17486" data-name="Caminho 17486" d="M363.227,330.672,348.179,304.92l6.09-3.348,13.654,26.522a2.68,2.68,0,0,1-4.7,2.578M350.4,305.534l14.214,24.325a1.07,1.07,0,0,0,1.875-1.028l-12.9-25.052Z" transform="translate(48.705 42.185)" fill="#0e2201"/>
            <path id="Caminho_17487" data-name="Caminho 17487" d="M352.8,334.315l-2.055-29.332-5.272.51,3.6,29.182a1.875,1.875,0,0,0,3.731-.36" transform="translate(48.325 42.662)" fill="#0e2201"/>
            <path id="Caminho_17488" data-name="Caminho 17488" d="M348.378,334.883l-3.7-30,6.917-.668,2.115,30.156a2.68,2.68,0,0,1-5.333.515m3.727-.4-2-28.507-3.626.35,3.495,28.363a1.069,1.069,0,0,0,2.128-.206Z" transform="translate(48.215 42.554)" fill="#0e2201"/>
            <path id="Caminho_17489" data-name="Caminho 17489" d="M338.871,329.556l9.089-22.388-4.969-1.835-7.654,22.918a1.885,1.885,0,0,0,3.534,1.306" transform="translate(46.894 42.711)" fill="#0e2201"/>
            <path id="Caminho_17490" data-name="Caminho 17490" d="M336.29,331.5a2.676,2.676,0,0,1-1.616-3.373l7.918-23.706,6.526,2.412-9.4,23.157a2.676,2.676,0,0,1-3.425,1.51m7.3-24.993-7.391,22.13a1.079,1.079,0,0,0,2.023.748L347,307.763Z" transform="translate(46.796 42.583)" fill="#0e2201"/>
            <path id="Caminho_17491" data-name="Caminho 17491" d="M332.381,308.967l13.26-6.756-2.634-4.595-12.533,8.027a1.918,1.918,0,0,0,1.907,3.324" transform="translate(46.104 41.632)" fill="#0e2201"/>
            <path id="Caminho_17492" data-name="Caminho 17492" d="M329.246,308.751a2.718,2.718,0,0,1,.894-3.645l13.243-8.484,3.474,6.063-14.012,7.14a2.719,2.719,0,0,1-3.6-1.074m15.374-6.733-1.792-3.128-11.821,7.571a1.113,1.113,0,0,0,1.107,1.929Z" transform="translate(46.006 41.492)" fill="#0e2201"/>
            <path id="Caminho_17493" data-name="Caminho 17493" d="M337.05,304.314c0,6.818,6.178,12.661,12.79,12.661s12.788-6.477,12.788-13.293-7.1-14.983-13.709-14.983-11.869,8.8-11.869,15.615" transform="translate(47.148 40.384)" fill="#0e2201"/>
            <path id="Caminho_17494" data-name="Caminho 17494" d="M336.343,304.413c0-7.438,5.654-16.42,12.674-16.42,6.918,0,14.514,8.262,14.514,15.787,0,7.246-6.606,14.1-13.594,14.1a13.884,13.884,0,0,1-13.594-13.465m1.612,0c0,6.2,5.711,11.855,11.983,11.855,6.16,0,11.985-6.069,11.985-12.487,0-6.625-6.875-14.177-12.9-14.177-5.959,0-11.063,8.143-11.063,14.809" transform="translate(47.049 40.286)" fill="#0e2201"/>
            <path id="Caminho_17495" data-name="Caminho 17495" d="M109.41,223.487c-1.391.024-2.741.031-4.077,0a79.764,79.764,0,0,1-17.374-2.218,68.8,68.8,0,0,1-7.769-2.393,1.433,1.433,0,0,1-.282-.112c-1.247-.473-2.447-.983-3.588-1.5q-.843-.383-1.646-.784c-1.183-.579-2.3-1.187-3.374-1.8a55.008,55.008,0,0,1-6.861-4.651c-8.407-6.614-11.882-13.3-12.157-13.867l-12.12,5.958c.376.8,5.746,11.449,18.916,20.771a69.754,69.754,0,0,0,8.838,5.339,73.02,73.02,0,0,0,7.945,3.483c.539.2,1.091.4,1.651.58,1.883.651,3.853,1.248,5.89,1.786.523.132,1.053.277,1.584.39q3.579.884,7.514,1.475a102.567,102.567,0,0,0,17.178,1.042l-.067-3.222Z" transform="translate(5.618 27.44)" fill="#3d751c"/>
            <path id="Caminho_17496" data-name="Caminho 17496" d="M92.511,236.874c-2.618-.391-5.171-.893-7.564-1.484-.4-.085-.8-.188-1.2-.291l-.424-.108c-2.034-.537-4.034-1.143-5.931-1.8-.571-.184-1.136-.385-1.684-.593a74.1,74.1,0,0,1-8.029-3.52,71.073,71.073,0,0,1-8.939-5.4c-13.729-9.719-19.126-20.974-19.18-21.086l-.336-.717,13.557-6.664.353.727c.033.068,3.4,6.879,11.936,13.59a53.965,53.965,0,0,0,6.757,4.581c1.23.7,2.288,1.264,3.334,1.777q.792.395,1.619.772c1.24.563,2.4,1.049,3.542,1.482l.278.111a68.428,68.428,0,0,0,7.681,2.365,79.317,79.317,0,0,0,17.2,2.194c1.325.032,2.665.025,4.045,0l.8-.014.3,15.109-.8.016q-1.152.024-2.3.024a102.829,102.829,0,0,1-15.016-1.075m16.24-12.438c-1.12.014-2.217.013-3.306-.011A81,81,0,0,1,87.9,222.182a69.131,69.131,0,0,1-7.806-2.4,1.557,1.557,0,0,1-.34-.132c-1.175-.446-2.364-.943-3.637-1.522-.57-.26-1.127-.525-1.665-.793-1.072-.525-2.157-1.1-3.421-1.823a55.729,55.729,0,0,1-6.957-4.716,47.63,47.63,0,0,1-12-13.435l-10.684,5.253a61.583,61.583,0,0,0,18.289,19.754,69.471,69.471,0,0,0,8.739,5.28,72.9,72.9,0,0,0,7.862,3.447c.527.2,1.066.391,1.628.572,1.875.646,3.838,1.241,5.825,1.766l.424.108c.375.1.752.195,1.157.282,2.37.586,4.873,1.077,7.439,1.46a102.334,102.334,0,0,0,16.239,1.048Z" transform="translate(5.487 27.307)" fill="#3d751c"/>
            <path id="Caminho_17497" data-name="Caminho 17497" d="M101.168,220.649A80.373,80.373,0,0,1,84.932,218.7a.668.668,0,0,0-.8.846c1.309,4.3,2.737,8.92,4.072,13.155a.674.674,0,0,0,.551.467,102.823,102.823,0,0,0,16.756.981l-.067-3.224Z" transform="translate(11.765 30.59)" fill="#418e11"/>
            <path id="Caminho_17498" data-name="Caminho 17498" d="M88.728,234.961a2.268,2.268,0,0,1-1.859-1.578c-1.337-4.24-2.766-8.864-4.077-13.17a2.277,2.277,0,0,1,2.7-2.884,79.3,79.3,0,0,0,15.912,1.907l1.048.023,4.8,11.528.106,5.137-1.61.033q-1.163.024-2.319.024a103.656,103.656,0,0,1-14.7-1.02m15.311-3.5-3.759-9.035a82.934,82.934,0,0,1-13.941-1.617c1.117,3.654,2.3,7.472,3.424,11.044a102.471,102.471,0,0,0,14.3.906Z" transform="translate(11.567 30.393)" fill="#418e11"/>
            <path id="Caminho_17499" data-name="Caminho 17499" d="M68.686,212.81a54.923,54.923,0,0,1-6.569-4.482L56.755,221.19a70.158,70.158,0,0,0,8.325,5.076.453.453,0,0,0,.651-.28c.964-3.84,2.19-8.733,3.169-12.69a.439.439,0,0,0-.213-.486" transform="translate(7.939 29.142)" fill="#418e11"/>
            <path id="Caminho_17500" data-name="Caminho 17500" d="M64.583,228.015a72,72,0,0,1-8.515-5.193l-1.052-.744,6.679-16.02,1.669,1.329a53.276,53.276,0,0,0,6.379,4.351A2.038,2.038,0,0,1,70.705,214c-.979,3.959-2.206,8.852-3.17,12.695a2.037,2.037,0,0,1-1.147,1.369,2.071,2.071,0,0,1-1.806-.049m-1.54-16.821-4.058,9.733c1.88,1.282,3.819,2.468,5.788,3.543.824-3.285,1.778-7.1,2.6-10.395-1.493-.9-2.941-1.864-4.327-2.882" transform="translate(7.696 28.824)" fill="#418e11"/>
            <path id="Caminho_17501" data-name="Caminho 17501" d="M77.525,217.576a1.2,1.2,0,0,0-.752-.87c-.349-.136-.692-.276-1.022-.427a1.512,1.512,0,0,1-.282-.112c-1.048-.425-2.826-1.179-3.4-1.424a.123.123,0,0,0-.17.125l1.11,14.009a1.235,1.235,0,0,0,.838,1.081c1.5.5,5.413,1.591,6.48,1.861a.143.143,0,0,0,.172-.175c-1.013-4.789-2.12-10.063-2.972-14.069" transform="translate(10.057 30.038)" fill="#418e11"/>
            <path id="Caminho_17502" data-name="Caminho 17502" d="M80.126,233.606c-1.063-.269-5.025-1.371-6.594-1.894a2.841,2.841,0,0,1-1.934-2.48l-1.109-14a1.741,1.741,0,0,1,.709-1.55l.857-.549.839.357c.572.243,2.337.991,3.507,1.473l.219.081c.3.139.614.266.93.389a2.809,2.809,0,0,1,1.746,2.039l2.973,14.067a1.747,1.747,0,0,1-.5,1.639l-.775.649Zm-4.758-15.6a2.991,2.991,0,0,1-.37-.15c-.324-.132-.711-.292-1.107-.457l.9,11.334c.929.3,2.49.749,3.836,1.126l-2.43-11.5c-.282-.111-.557-.226-.825-.348" transform="translate(9.859 29.813)" fill="#418e11"/>
            <path id="Caminho_17503" data-name="Caminho 17503" d="M43.8,219.869c7.184,7.516,20.407,18.12,21.915,16.987,1.214-.913,2.107-5.062,2.711-6.512l7.825-18.775a7.049,7.049,0,0,0-3.547-9.125c-8.774-4.023-16.32-10.609-23.287-17.559A7.073,7.073,0,0,0,41.7,183.35l-14.177,5.889a4.044,4.044,0,0,0-1.815,5.991c4.539,6.756,13.594,19.94,18.085,24.639" transform="translate(3.501 25.572)" fill="#77c457"/>
            <path id="Caminho_17504" data-name="Caminho 17504" d="M43.315,220.524c-4.7-4.915-14.274-18.944-18.172-24.747a4.849,4.849,0,0,1,2.174-7.182l14.178-5.889a7.863,7.863,0,0,1,8.588,1.706c6.266,6.25,13.9,13.2,23.054,17.4a7.822,7.822,0,0,1,3.954,10.167l-7.825,18.775c-.168.4-.359,1.03-.574,1.735-.751,2.44-1.4,4.366-2.4,5.111a1.039,1.039,0,0,1-.639.18c-3.844,0-17.745-12.445-22.341-17.254m-1.2-36.33-14.178,5.889a3.238,3.238,0,0,0-1.454,4.8c3.876,5.768,13.388,19.706,18,24.531,7.3,7.638,18.866,16.651,20.94,16.82.628-.628,1.315-2.86,1.734-4.219.234-.764.445-1.441.628-1.88l7.825-18.776a6.218,6.218,0,0,0-3.14-8.083c-9.381-4.3-17.153-11.371-23.519-17.722a6.251,6.251,0,0,0-6.834-1.359" transform="translate(3.402 25.473)" fill="#77c457"/>
            <path id="Caminho_17505" data-name="Caminho 17505" d="M5.644,174.164l18.43,6.041,1.454-5.093-18.843-4.6a1.9,1.9,0,0,0-1.041,3.648" transform="translate(0.607 23.845)" fill="#0e2201"/>
            <path id="Caminho_17506" data-name="Caminho 17506" d="M5.493,175.028a2.7,2.7,0,0,1,1.482-5.194l19.656,4.793-1.913,6.7Zm1.1-3.631a1.093,1.093,0,0,0-.6,2.1l17.634,5.782,1-3.485Z" transform="translate(0.508 23.746)" fill="#0e2201"/>
            <path id="Caminho_17507" data-name="Caminho 17507" d="M1.388,158.769l22.4,18.422,3.252-4.18-23.351-17.2a1.875,1.875,0,0,0-2.3,2.958" transform="translate(0.098 21.744)" fill="#0e2201"/>
            <path id="Caminho_17508" data-name="Caminho 17508" d="M.976,159.489a2.68,2.68,0,0,1,3.291-4.228L28.283,172.95l-4.268,5.486L.976,159.489m2.337-2.931A1.07,1.07,0,0,0,2,158.245l21.762,17.9L26,173.266Z" transform="translate(0 21.645)" fill="#0e2201"/>
            <path id="Caminho_17509" data-name="Caminho 17509" d="M11.044,148.458l13.5,26.122,4.639-2.556L14.327,146.65a1.875,1.875,0,0,0-3.283,1.808" transform="translate(1.516 20.384)" fill="#0e2201"/>
            <path id="Caminho_17510" data-name="Caminho 17510" d="M10.429,148.927a2.679,2.679,0,0,1,4.692-2.584L30.4,172.43l-6.088,3.352Zm3.3-1.771a1.07,1.07,0,0,0-1.874,1.03L24.98,173.574l3.193-1.758Z" transform="translate(1.416 20.285)" fill="#0e2201"/>
            <path id="Caminho_17511" data-name="Caminho 17511" d="M25.026,146.819l.519,24.158,5.289-.282-2.046-24.077a1.884,1.884,0,0,0-3.762.2" transform="translate(3.501 20.268)" fill="#0e2201"/>
            <path id="Caminho_17512" data-name="Caminho 17512" d="M24.32,146.935a2.69,2.69,0,0,1,5.369-.284l2.117,24.9-6.948.369Zm3.765-.149a1.051,1.051,0,0,0-1.132-.985,1.075,1.075,0,0,0-1.024,1.1l.5,23.325,3.628-.193Z" transform="translate(3.402 20.17)" fill="#0e2201"/>
            <path id="Caminho_17513" data-name="Caminho 17513" d="M39.584,161.6l-9.5,11.454,4.238,3.177,8.329-12.332a1.918,1.918,0,0,0-3.066-2.3" transform="translate(4.208 22.507)" fill="#0e2201"/>
            <path id="Caminho_17514" data-name="Caminho 17514" d="M29.066,173.284l10.041-12.1a2.723,2.723,0,0,1,4.352,3.262l-8.8,13.033Zm11.28-11.076-8.961,10.8,2.884,2.162,7.855-11.631a1.113,1.113,0,0,0-1.778-1.334" transform="translate(4.066 22.408)" fill="#0e2201"/>
            <path id="Caminho_17515" data-name="Caminho 17515" d="M38.837,169.17c-2.7-6.26-10.686-9.179-16.757-6.561s-9.179,11.01-6.479,17.27,12.451,10.946,18.521,8.329,7.415-12.778,4.716-19.038" transform="translate(2.045 22.612)" fill="#0e2201"/>
            <path id="Caminho_17516" data-name="Caminho 17516" d="M23.358,188.2c-3.9-1.794-7.038-4.75-8.4-7.906a14.362,14.362,0,0,1-.065-10.6,13.366,13.366,0,0,1,6.965-7.726,13.712,13.712,0,0,1,10.249-.062,13.4,13.4,0,0,1,7.567,7.043c2.944,6.829,1.31,17.316-5.136,20.1a10.613,10.613,0,0,1-4.207.81,16.891,16.891,0,0,1-6.974-1.654M38.2,169.587a11.782,11.782,0,0,0-6.664-6.177,12.1,12.1,0,0,0-9.036.037,11.753,11.753,0,0,0-6.093,6.812,12.742,12.742,0,0,0,.033,9.4c1.208,2.8,4.047,5.447,7.594,7.08,3.569,1.644,7.26,1.951,9.87.828,5.47-2.36,6.934-11.858,4.3-17.98" transform="translate(1.946 22.513)" fill="#0e2201"/>
            <path id="Caminho_17517" data-name="Caminho 17517" d="M274.662,211.4v32.666a12.9,12.9,0,0,0,12.918,12.9h11.631A15.334,15.334,0,0,0,314.5,241.68V213.772a15.342,15.342,0,0,0-15.289-15.288H287.58A12.913,12.913,0,0,0,274.662,211.4" transform="translate(38.421 27.765)" fill="#5b9b3d"/>
            <path id="Caminho_17518" data-name="Caminho 17518" d="M273.956,244.166V211.5a13.738,13.738,0,0,1,13.723-13.723H299.31a16.114,16.114,0,0,1,16.1,16.1v27.907a16.114,16.114,0,0,1-16.1,16.1H287.679a13.731,13.731,0,0,1-13.723-13.708m13.723-44.778A12.127,12.127,0,0,0,275.566,211.5v32.666a12.12,12.12,0,0,0,12.113,12.1H299.31a14.5,14.5,0,0,0,14.485-14.485V213.872a14.5,14.5,0,0,0-14.485-14.485Z" transform="translate(38.322 27.666)" fill="#5b9b3d"/>
            <path id="Caminho_17519" data-name="Caminho 17519" d="M90.874,213.773v27.908a15.334,15.334,0,0,0,15.289,15.289H117.8a12.911,12.911,0,0,0,12.917-12.9V211.4A12.922,12.922,0,0,0,117.8,198.484H106.163a15.343,15.343,0,0,0-15.289,15.289" transform="translate(12.712 27.765)" fill="#5b9b3d"/>
            <path id="Caminho_17520" data-name="Caminho 17520" d="M90.167,241.779V213.872a16.113,16.113,0,0,1,16.1-16.1h11.631A13.739,13.739,0,0,1,131.617,211.5v32.666a13.732,13.732,0,0,1-13.723,13.708H106.262a16.113,16.113,0,0,1-16.1-16.1m16.1-42.391a14.5,14.5,0,0,0-14.484,14.485v27.907a14.5,14.5,0,0,0,14.484,14.485h11.631a12.119,12.119,0,0,0,12.112-12.1V211.5a12.126,12.126,0,0,0-12.112-12.112Z" transform="translate(12.613 27.666)" fill="#5b9b3d"/>
            <path id="Caminho_17521" data-name="Caminho 17521" d="M111.027,243.714l14.333,32.165,27.821,62.431a65.525,65.525,0,0,0,59.1,39.109h1.2a65.525,65.525,0,0,0,59.1-39.109l27.821-62.431,14.333-32.165c16.447-28.479-4.116-64.059-36.981-64.059H148.009c-32.866,0-53.429,35.58-36.981,64.059" transform="translate(14.721 25.131)" fill="#77c457"/>
            <path id="Caminho_17522" data-name="Caminho 17522" d="M212.376,378.324a66.393,66.393,0,0,1-59.83-39.587l-42.138-94.559a43.51,43.51,0,0,1,37.7-65.231H277.855a43.5,43.5,0,0,1,37.717,65.193l-42.153,94.6a66.4,66.4,0,0,1-59.837,39.587ZM148.108,180.558a41.9,41.9,0,0,0-36.284,62.852l42.192,94.672a64.777,64.777,0,0,0,58.365,38.632h1.195a64.781,64.781,0,0,0,58.372-38.632L314.14,243.41a41.9,41.9,0,0,0-36.285-62.852Z" transform="translate(14.622 25.032)" fill="#77c457"/>
            <path id="Caminho_17523" data-name="Caminho 17523" d="M112.73,246.952,126,277.339a2.794,2.794,0,0,0,2.559,1.674H178.8a2.793,2.793,0,0,0,2.793-2.793V240.968a2.792,2.792,0,0,1,2.792-2.793h60.674a2.793,2.793,0,0,1,2.793,2.793v35.253a2.792,2.792,0,0,0,2.793,2.793H296.47a2.8,2.8,0,0,0,2.56-1.674L312.3,246.952a1.991,1.991,0,0,1,.1-.2c16.016-28.463-4.127-63.96-36.3-63.96H148.93c-32.174,0-52.32,35.5-36.3,63.96a1.984,1.984,0,0,1,.1.2" transform="translate(14.969 25.569)" fill="#5b9b3d"/>
            <path id="Caminho_17524" data-name="Caminho 17524" d="M125.364,277.76l-13.269-30.387.736-.323-.8.191A43.739,43.739,0,0,1,112.4,203.3a42.137,42.137,0,0,1,36.636-21.216H276.2A42.136,42.136,0,0,1,312.836,203.3a43.823,43.823,0,0,1,.3,44.076L299.867,277.76a3.594,3.594,0,0,1-3.3,2.157H250.744a3.6,3.6,0,0,1-3.6-3.6V241.066a1.99,1.99,0,0,0-1.988-1.988H184.486a1.99,1.99,0,0,0-1.988,1.988V276.32a3.6,3.6,0,0,1-3.6,3.6H128.66a3.6,3.6,0,0,1-3.3-2.157m123.392-36.694V276.32a1.99,1.99,0,0,0,1.988,1.988h45.827a1.989,1.989,0,0,0,1.823-1.192l13.269-30.384a2.771,2.771,0,0,1,.138-.278,42.145,42.145,0,0,0-.354-42.343A40.544,40.544,0,0,0,276.2,183.693H149.032a40.541,40.541,0,0,0-35.246,20.419,42.142,42.142,0,0,0-.356,42.34,2.921,2.921,0,0,1,.137.274l13.272,30.39a1.989,1.989,0,0,0,1.822,1.192H178.9a1.989,1.989,0,0,0,1.987-1.988V241.066a3.6,3.6,0,0,1,3.6-3.6h60.673a3.6,3.6,0,0,1,3.6,3.6" transform="translate(14.868 25.47)" fill="#5b9b3d"/>
            <path id="Caminho_17525" data-name="Caminho 17525" d="M274.662,211.4v32.666a12.9,12.9,0,0,0,12.918,12.9h1.085l6.659-14.932a42.267,42.267,0,0,0-.514-43.553h-7.23A12.913,12.913,0,0,0,274.662,211.4" transform="translate(38.421 27.765)" fill="#468721"/>
            <path id="Caminho_17526" data-name="Caminho 17526" d="M273.956,244.165V211.5a13.739,13.739,0,0,1,13.723-13.723h7.683l.235.385a42.835,42.835,0,0,1,.563,44.3l-6.871,15.409h-1.61a13.732,13.732,0,0,1-13.723-13.708m20.771-2.431a41.278,41.278,0,0,0-.273-42.347h-6.775A12.127,12.127,0,0,0,275.567,211.5v32.665a12.119,12.119,0,0,0,12.112,12.1h.564Z" transform="translate(38.322 27.666)" fill="#468721"/>
            <path id="Caminho_17527" data-name="Caminho 17527" d="M107.479,241.551l6.873,15.418h1.214a12.91,12.91,0,0,0,12.918-12.9V211.4a12.922,12.922,0,0,0-12.918-12.917h-7.873a42.3,42.3,0,0,0-.214,43.068" transform="translate(14.225 27.764)" fill="#468721"/>
            <path id="Caminho_17528" data-name="Caminho 17528" d="M106.862,242.016a43,43,0,0,1,.239-43.843l.235-.4h8.333A13.738,13.738,0,0,1,129.39,211.5v32.666a13.731,13.731,0,0,1-13.722,13.708h-1.737Zm1.4-42.628a41.394,41.394,0,0,0,.021,41.86l6.7,15.016h.692a12.119,12.119,0,0,0,12.112-12.1V211.5a12.126,12.126,0,0,0-12.112-12.112Z" transform="translate(14.124 27.666)" fill="#468721"/>
            <path id="Caminho_17529" data-name="Caminho 17529" d="M111.027,243.714l14.333,32.165h52.145a.91.91,0,0,0,.911-.911v-37.3a2.63,2.63,0,0,1,2.63-2.629h68.175a2.629,2.629,0,0,1,2.629,2.629v37.3a.911.911,0,0,0,.911.911h47.645l14.333-32.165c16.447-28.479-4.116-64.059-36.981-64.059H148.009c-32.866,0-53.429,35.58-36.981,64.059" transform="translate(14.721 25.131)" fill="#e2f8e1"/>
            <path id="Caminho_17530" data-name="Caminho 17530" d="M110.409,244.179a43.508,43.508,0,0,1,37.7-65.231H277.856a43.5,43.5,0,0,1,37.717,65.193l-14.545,32.642H252.86a1.718,1.718,0,0,1-1.715-1.717v-37.3a1.826,1.826,0,0,0-1.824-1.823H181.145a1.826,1.826,0,0,0-1.824,1.823v37.3a1.717,1.717,0,0,1-1.717,1.717H124.936Zm203.731-.769a41.9,41.9,0,0,0-36.284-62.851H148.108a41.9,41.9,0,0,0-36.284,62.851l14.157,31.764,51.729-.107v-37.3a3.438,3.438,0,0,1,3.434-3.433h68.175a3.438,3.438,0,0,1,3.434,3.433l.1,37.406h47.122Z" transform="translate(14.622 25.032)" fill="#e2f8e1"/>
            <path id="Caminho_17531" data-name="Caminho 17531" d="M176.168,286.644a4.059,4.059,0,0,0,4.059,4.059h49.292a2.991,2.991,0,0,0,3.045-2.883c0-.031-.541-45.78-.541-45.78a5.834,5.834,0,0,0-5.617-5.761l-47.425-1.758a2.712,2.712,0,0,0-2.812,2.711Z" transform="translate(24.643 32.805)" fill="#5b9b3d"/>
            <path id="Caminho_17532" data-name="Caminho 17532" d="M175.461,286.741V237.33a3.517,3.517,0,0,1,3.648-3.514l47.425,1.757a6.633,6.633,0,0,1,6.392,6.555l.542,45.79a3.778,3.778,0,0,1-3.849,3.688H180.325a4.869,4.869,0,0,1-4.864-4.865m1.88-50.387a1.912,1.912,0,0,0-.269.977v49.411A3.257,3.257,0,0,0,180.325,290h49.293a2.2,2.2,0,0,0,2.239-2.1l-.541-45.749a5.024,5.024,0,0,0-4.842-4.966s-47.424-1.756-47.5-1.758a1.9,1.9,0,0,0-1.637.93" transform="translate(24.544 32.707)" fill="#5b9b3d"/>
            <path id="Caminho_17533" data-name="Caminho 17533" d="M178.884,288.737h52.061a1.357,1.357,0,0,0,1.358-1.358v-51.5a1.357,1.357,0,0,0-1.358-1.358H178.884a1.357,1.357,0,0,0-1.358,1.358v51.5a1.357,1.357,0,0,0,1.358,1.358" transform="translate(24.833 32.806)" fill="#77c457"/>
            <path id="Caminho_17534" data-name="Caminho 17534" d="M176.82,286.536V236.919a3.108,3.108,0,0,1,3.1-3.1H230.1a3.109,3.109,0,0,1,3.105,3.1v49.617a3.109,3.109,0,0,1-3.105,3.105H179.925a3.109,3.109,0,0,1-3.1-3.105m3.1-51.112a1.5,1.5,0,0,0-1.5,1.5v49.617a1.5,1.5,0,0,0,1.5,1.494H230.1a1.5,1.5,0,0,0,1.5-1.494V236.919a1.5,1.5,0,0,0-1.5-1.5Z" transform="translate(24.734 32.707)" fill="#5b9b3d"/>
            <path id="Caminho_17535" data-name="Caminho 17535" d="M296.07,32.282A110.261,110.261,0,0,1,298.577,45c.61,4.281,1.031,8.586,1.221,12.892a129.244,129.244,0,0,1-1.268,25.637l5.723.652a134.02,134.02,0,0,0-.875-26.614c-.561-4.385-1.352-8.732-2.332-13.025a111.88,111.88,0,0,0-3.62-12.711Z" transform="translate(41.415 4.453)" fill="#0e2201"/>
            <path id="Caminho_17536" data-name="Caminho 17536" d="M297.738,84.361l.114-.818a128.166,128.166,0,0,0,1.26-25.491c-.182-4.14-.592-8.451-1.214-12.813a108.636,108.636,0,0,0-2.487-12.624l-.194-.732,2.82-.939.266.742a110.973,110.973,0,0,1,3.646,12.8c1.012,4.43,1.8,8.838,2.346,13.1A129.739,129.739,0,0,1,305.4,70.9a132.888,132.888,0,0,1-.223,13.451l-.049.85Zm1.754-39.351c.629,4.415,1.042,8.778,1.228,12.967a125.229,125.229,0,0,1,0,12.959c-.155,4.147-.639,8.208-1.163,12.011l4.056.462c.206-3.783.369-8.136.174-12.449A128.221,128.221,0,0,0,302.7,57.794c-.538-4.213-1.319-8.57-2.317-12.949-.909-3.969-1.84-7.377-2.884-10.548.774,3.234,1.431,6.762,2,10.714" transform="translate(41.296 4.328)" fill="#0e2201"/>
            <path id="Caminho_17537" data-name="Caminho 17537" d="M289.77,30.223a5.716,5.716,0,1,0,5.715-5.715,5.716,5.716,0,0,0-5.715,5.715" transform="translate(40.534 3.428)" fill="#0e2201"/>
            <path id="Caminho_17538" data-name="Caminho 17538" d="M289.063,30.322a6.521,6.521,0,1,1,6.521,6.521,6.528,6.528,0,0,1-6.521-6.521m1.611,0a4.911,4.911,0,1,0,4.911-4.911,4.916,4.916,0,0,0-4.911,4.911" transform="translate(40.435 3.33)" fill="#0e2201"/>
            <path id="Caminho_17539" data-name="Caminho 17539" d="M102.078,32.282A110.29,110.29,0,0,0,99.572,45c-.611,4.281-1.03,8.586-1.221,12.892a129.361,129.361,0,0,0,1.266,25.637l-5.722.652a134.056,134.056,0,0,1,.875-26.614c.561-4.385,1.352-8.732,2.332-13.025a111.859,111.859,0,0,1,3.62-12.711Z" transform="translate(13.091 4.453)" fill="#0e2201"/>
            <path id="Caminho_17540" data-name="Caminho 17540" d="M93.189,84.351a133.656,133.656,0,0,1-.226-13.437,130.223,130.223,0,0,1,1.107-13.325c.546-4.264,1.334-8.672,2.346-13.1a111.244,111.244,0,0,1,3.646-12.8l.264-.742,2.822.939-.195.732a108.792,108.792,0,0,0-2.487,12.625c-.622,4.359-1.03,8.67-1.214,12.816a128.5,128.5,0,0,0,1.26,25.489l.115.818-7.39.841Zm4.454-13.4a125.771,125.771,0,0,1,0-12.97c.187-4.2.6-8.559,1.229-12.971.564-3.951,1.221-7.479,2-10.718-1.045,3.173-1.975,6.583-2.884,10.553-1,4.379-1.779,8.735-2.319,12.951a128.4,128.4,0,0,0-1.094,13.177c-.193,4.3-.031,8.653.177,12.436l4.055-.463c-.522-3.8-1.008-7.863-1.162-12" transform="translate(12.992 4.328)" fill="#0e2201"/>
            <path id="Caminho_17541" data-name="Caminho 17541" d="M108.739,30.223a5.716,5.716,0,1,1-5.715-5.715,5.716,5.716,0,0,1,5.715,5.715" transform="translate(13.612 3.428)" fill="#0e2201"/>
            <path id="Caminho_17542" data-name="Caminho 17542" d="M96.6,30.322a6.521,6.521,0,1,1,6.521,6.521A6.529,6.529,0,0,1,96.6,30.322m1.611,0a4.911,4.911,0,1,0,4.911-4.911,4.916,4.916,0,0,0-4.911,4.911" transform="translate(13.513 3.33)" fill="#0e2201"/>
            <path id="Caminho_17543" data-name="Caminho 17543" d="M278.172,93.432v25.25a19.4,19.4,0,0,0,12.1,17.976,19.057,19.057,0,0,0,7.3,1.429c10.731,0,22.991-9.045,22.991-19.763V93.076c0-10.131-10.975-18.133-21.234-18.963q-.879-.085-1.758-.085a19.418,19.418,0,0,0-19.405,19.405" transform="translate(38.912 10.355)" fill="#5b9b3d"/>
            <path id="Caminho_17544" data-name="Caminho 17544" d="M290.071,137.5a20.132,20.132,0,0,1-12.6-18.721V93.531a20.222,20.222,0,0,1,20.21-20.21c.612,0,1.224.03,1.823.088,10.611.857,21.974,9,21.974,19.766v25.248c0,11.394-13.018,20.568-23.8,20.568a19.771,19.771,0,0,1-7.605-1.489m-5.543-57.12a18.479,18.479,0,0,0-5.452,13.149v25.25a18.527,18.527,0,0,0,11.607,17.232,18.155,18.155,0,0,0,6.993,1.368c10.049,0,22.187-8.456,22.187-18.957V93.174c0-9.727-10.8-17.378-20.508-18.162-.56-.055-1.118-.082-1.679-.082a18.477,18.477,0,0,0-13.149,5.452" transform="translate(38.813 10.256)" fill="#5b9b3d"/>
            <path id="Caminho_17545" data-name="Caminho 17545" d="M82.613,97v18.1a23.052,23.052,0,0,0,22.978,22.978,19.42,19.42,0,0,0,19.419-19.405V93.432a19.418,19.418,0,0,0-19.419-19.405,21.468,21.468,0,0,0-3.616.3A23.04,23.04,0,0,0,82.613,97" transform="translate(11.556 10.355)" fill="#5b9b3d"/>
            <path id="Caminho_17546" data-name="Caminho 17546" d="M81.907,115.208V97.1a23.939,23.939,0,0,1,20.03-23.47,22.255,22.255,0,0,1,3.751-.312,20.222,20.222,0,0,1,20.225,20.21v25.25a20.222,20.222,0,0,1-20.225,20.21,23.809,23.809,0,0,1-23.781-23.783M102.2,75.221A22.321,22.321,0,0,0,83.516,97.1v18.1a22.2,22.2,0,0,0,22.172,22.172,18.609,18.609,0,0,0,18.614-18.6V93.531a18.613,18.613,0,0,0-18.614-18.6,20.791,20.791,0,0,0-3.489.291" transform="translate(11.457 10.256)" fill="#5b9b3d"/>
            <path id="Caminho_17547" data-name="Caminho 17547" d="M278.172,93.432v25.25a19.4,19.4,0,0,0,12.1,17.976C297.991,125.7,302.35,112.48,302.35,97a90.839,90.839,0,0,0-3.015-22.892q-.879-.085-1.758-.085a19.418,19.418,0,0,0-19.405,19.405" transform="translate(38.912 10.355)" fill="#468721"/>
            <path id="Caminho_17548" data-name="Caminho 17548" d="M290.071,137.5a20.132,20.132,0,0,1-12.6-18.721V93.532a20.211,20.211,0,0,1,22.047-20.12l.559.055.143.544a91.649,91.649,0,0,1,3.04,23.094c0,15.1-4.111,28.6-12.221,40.116l-.368.523Zm-5.543-57.12a18.479,18.479,0,0,0-5.452,13.149v25.25a18.524,18.524,0,0,0,11.012,16.979c7.668-11.124,11.556-24.127,11.556-38.656A89.835,89.835,0,0,0,298.8,74.968a18.451,18.451,0,0,0-14.269,5.416" transform="translate(38.813 10.256)" fill="#468721"/>
            <path id="Caminho_17549" data-name="Caminho 17549" d="M96.715,97.718c0,15.461,4.387,28.693,12.175,39.639a19.393,19.393,0,0,0,14.146-18.677V93.431a19.416,19.416,0,0,0-19.419-19.4,21.479,21.479,0,0,0-3.616.3,87.626,87.626,0,0,0-3.286,23.392" transform="translate(13.529 10.355)" fill="#468721"/>
            <path id="Caminho_17550" data-name="Caminho 17550" d="M108.332,137.923c-8.176-11.493-12.323-24.986-12.323-40.106A88.5,88.5,0,0,1,99.325,74.21l.136-.492.5-.086a22.255,22.255,0,0,1,3.751-.312,20.226,20.226,0,0,1,20.225,20.21v25.25a20.255,20.255,0,0,1-14.735,19.452l-.545.153ZM100.74,75.14a86.679,86.679,0,0,0-3.121,22.677c0,14.572,3.935,27.59,11.7,38.7A18.644,18.644,0,0,0,122.33,118.78V93.53a18.611,18.611,0,0,0-18.614-18.6,20.9,20.9,0,0,0-2.976.21" transform="translate(13.43 10.256)" fill="#468721"/>
            <path id="Caminho_17551" data-name="Caminho 17551" d="M100.789,107.62c0,52.214,50.042,78.835,111.458,78.835s110.986-26.622,110.986-78.835c0-44.24-34.909-90.295-82.936-103.313A103.418,103.418,0,0,0,213.205.692a104.578,104.578,0,0,0-26.851,3.515C137.6,17.082,100.789,63.251,100.789,107.62" transform="translate(14.099 0.097)" fill="#77c457"/>
            <path id="Caminho_17552" data-name="Caminho 17552" d="M100.083,107.717c0-45.666,37.848-91.432,86.163-104.191a105.069,105.069,0,0,1,54.361.1c46.84,12.7,83.531,58.418,83.531,104.09,0,48.38-43.881,79.64-111.792,79.64-68.2,0-112.263-31.26-112.263-79.64M186.658,5.083c-47.644,12.582-84.965,57.663-84.965,102.634,0,47.4,43.433,78.03,110.652,78.03,66.933,0,110.182-30.629,110.182-78.03,0-44.981-36.17-90.02-82.343-102.536A102.788,102.788,0,0,0,213.3,1.594a103.967,103.967,0,0,0-26.645,3.489" transform="translate(14 0)" fill="#77c457"/>
            <path id="Caminho_17553" data-name="Caminho 17553" d="M124.723,115.287c0,35.3,29.769,43.211,69.226,44.507l1.84-12.852h27.929l1.825,12.794c38.676-1.486,68-9.689,68-44.449,0-39.633-8.6-86.627-82.7-86.627s-86.127,46.994-86.127,86.627" transform="translate(17.447 4.009)" fill="#5b9b3d"/>
            <path id="Caminho_17554" data-name="Caminho 17554" d="M194.021,160.7c-36.358-1.193-70-7.51-70-45.31,0-58.834,28.437-87.434,86.933-87.434,74.01,0,83.5,46.726,83.5,87.434,0,37.544-34.768,43.944-68.778,45.252l-.725.028-1.829-12.823H196.587l-1.843,12.876Zm32.316-1.7c34.638-1.4,66.505-7.782,66.505-43.614,0-39.959-9.308-85.824-81.892-85.824-57.414,0-85.324,28.073-85.324,85.824,0,36.184,32.455,42.449,67.727,43.677l1.836-12.829h29.325Z" transform="translate(17.348 3.91)" fill="#5b9b3d"/>
            <path id="Caminho_17555" data-name="Caminho 17555" d="M126.9,114.431c0,34.266,28.894,41.94,67.189,43.2l1.786-12.475h27.106l1.773,12.418c37.539-1.443,66-9.4,66-43.14,0-38.468-8.345-84.079-80.264-84.079S126.9,75.963,126.9,114.431" transform="translate(17.751 4.246)" fill="#3e6a2a"/>
            <path id="Caminho_17556" data-name="Caminho 17556" d="M194.163,158.531c-35.3-1.159-67.968-7.292-67.968-44,0-57.118,27.607-84.884,84.4-84.884,71.855,0,81.07,45.364,81.07,84.884,0,36.461-33.757,42.675-66.778,43.945l-.725.028-1.775-12.445H196.674l-1.79,12.5Zm31.386-1.7c33.6-1.361,64.5-7.554,64.5-42.307,0-38.771-9.031-83.274-79.459-83.274-55.708,0-82.787,27.24-82.787,83.274,0,35.094,31.473,41.176,65.689,42.369l1.783-12.452h28.5Z" transform="translate(17.653 4.147)" fill="#a1d388"/>
            <path id="Caminho_17557" data-name="Caminho 17557" d="M175.855,4.207v8.745a9.288,9.288,0,0,0,9.288,9.288h35.366a9.289,9.289,0,0,0,9.289-9.288V4.308A103.373,103.373,0,0,0,202.7.692a104.562,104.562,0,0,0-26.85,3.515" transform="translate(24.599 0.097)" fill="#5b9b3d"/>
            <path id="Caminho_17558" data-name="Caminho 17558" d="M175.147,13.049V3.685l.6-.16a105.069,105.069,0,0,1,54.361.1l.594.162v9.26a10.1,10.1,0,0,1-10.094,10.094H185.241a10.1,10.1,0,0,1-10.094-10.094m1.611-8.124v8.124a8.492,8.492,0,0,0,8.483,8.483h35.366a8.493,8.493,0,0,0,8.484-8.483V5.022a103.42,103.42,0,0,0-52.333-.1" transform="translate(24.5 0)" fill="#5b9b3d"/>
            <path id="Caminho_17559" data-name="Caminho 17559" d="M150.153,22.2a17.557,17.557,0,0,1,10.515-1.716c2.768.446,4.912,1.517,2.411,4.018-5,5-24.292,15-30.007,21.434-5.429,6.108-8.763-10.986,17.081-23.737" transform="translate(18.084 2.837)" fill="#a1d388"/>
            <path id="Caminho_17560" data-name="Caminho 17560" d="M130.35,48c-1.024-.352-1.668-1.456-1.767-3.029-.275-4.321,3.827-14.773,21.311-23.4a18.257,18.257,0,0,1,11-1.79c2.39.386,3.732,1.125,4.1,2.26.3.94-.115,1.991-1.247,3.122-2.3,2.3-7.451,5.573-12.908,9.042-6.552,4.165-13.979,8.885-17.067,12.359a3.755,3.755,0,0,1-2.735,1.547A2.088,2.088,0,0,1,130.35,48m20.257-24.984C135.1,30.672,129.9,40.28,130.191,44.873c.054.853.321,1.484.684,1.608.308.1.908-.1,1.694-.981,3.237-3.643,10.44-8.221,17.406-12.648,5.38-3.42,10.463-6.649,12.633-8.82.631-.631.951-1.189.854-1.49-.041-.125-.367-.769-2.823-1.166a15.4,15.4,0,0,0-2.437-.194,17.181,17.181,0,0,0-7.594,1.837" transform="translate(17.985 2.738)" fill="#a1d388"/>
            <path id="Caminho_17561" data-name="Caminho 17561" d="M94.872,80.4s-8.4,1.25-9.11,11.968,3.395,15,4.287,9.288,1.607-9.467,2.144-13.039,3.214-6.073,3.393-7.324-.715-.893-.715-.893" transform="translate(11.985 11.24)" fill="#a1d388"/>
            <path id="Caminho_17562" data-name="Caminho 17562" d="M88.507,105.091c-2.39-.266-3.906-5.834-3.45-12.677.709-10.624,8.754-12.509,9.7-12.694a1.346,1.346,0,0,1,1.252.188,1.608,1.608,0,0,1,.47,1.6,6.357,6.357,0,0,1-1.125,2.236,12.951,12.951,0,0,0-2.27,5.092c-.262,1.75-.568,3.542-.915,5.585-.362,2.132-.773,4.539-1.229,7.458-.427,2.736-1.526,3.222-2.251,3.221a1.577,1.577,0,0,1-.185-.01M86.664,92.521c-.491,7.37,1.364,10.867,1.994,10.973,0,0,.442-.251.694-1.863.458-2.928.869-5.341,1.233-7.48.345-2.032.649-3.814.91-5.555a14.493,14.493,0,0,1,2.51-5.727,8.02,8.02,0,0,0,.871-1.532c-1.281.275-7.605,2.093-8.212,11.183" transform="translate(11.887 11.141)" fill="#a1d388"/>
            <path id="Caminho_17563" data-name="Caminho 17563" d="M178.111,103.7a24.289,24.289,0,0,0,47.727,0Z" transform="translate(24.915 14.505)" fill="#263f17"/>
            <path id="Caminho_17564" data-name="Caminho 17564" d="M177.439,103.944l-.18-.954h49.669l-.18.954a25.094,25.094,0,0,1-49.309,0m1.783.657a23.486,23.486,0,0,0,45.745,0Z" transform="translate(24.796 14.407)" fill="#263f17"/>
            <path id="Caminho_17565" data-name="Caminho 17565" d="M187.237,103.7v3.684a3.932,3.932,0,0,0,3.933,3.933h19.057a3.933,3.933,0,0,0,3.933-3.933V103.7Z" transform="translate(26.191 14.505)" fill="#fff"/>
            <path id="Caminho_17566" data-name="Caminho 17566" d="M186.531,107.48v-4.49h28.531v4.49a4.742,4.742,0,0,1-4.736,4.737H191.268a4.743,4.743,0,0,1-4.737-4.737m1.611-2.879v2.879a3.13,3.13,0,0,0,3.127,3.127h19.058a3.131,3.131,0,0,0,3.127-3.127V104.6Z" transform="translate(26.093 14.407)" fill="#fff"/>
          </g>
        </g>
        <g id="Grupo_239" data-name="Grupo 239" transform="translate(152.901 60.818)">
          <g id="Grupo_238" data-name="Grupo 238" clip-path="url(#clip-path-2)">
            <path id="Caminho_17567" data-name="Caminho 17567" d="M216.957,81.993a23.221,23.221,0,1,0,23.221-23.221,23.22,23.22,0,0,0-23.221,23.221" transform="translate(-122.552 -52.597)" fill="#0e2201"/>
            <path id="Caminho_17568" data-name="Caminho 17568" d="M216.251,82.091a24.025,24.025,0,1,1,24.026,24.025,24.053,24.053,0,0,1-24.026-24.025m1.611,0a22.415,22.415,0,1,0,22.416-22.416,22.441,22.441,0,0,0-22.416,22.416" transform="translate(-122.651 -52.696)" fill="#0e2201"/>
          </g>
        </g>
        <g id="Grupo_241" data-name="Grupo 241" transform="translate(252.308 71.995)">
          <g id="Grupo_240" data-name="Grupo 240" clip-path="url(#clip-path-3)">
            <rect id="Retângulo_147" data-name="Retângulo 147" width="36.438" height="27.182" transform="translate(0 0)" fill="url(#radial-gradient)"/>
          </g>
        </g>
        <g id="Grupo_243" data-name="Grupo 243" transform="translate(152.901 60.818)">
          <g id="Grupo_242" data-name="Grupo 242" clip-path="url(#clip-path-2)">
            <path id="Caminho_17570" data-name="Caminho 17570" d="M220.638,81.478A19.025,19.025,0,1,1,239.663,100.5a19.046,19.046,0,0,1-19.025-19.023m1.611,0a17.414,17.414,0,1,0,17.414-17.414,17.433,17.433,0,0,0-17.414,17.414" transform="translate(-122.037 -52.082)" fill="#28510b"/>
            <path id="Caminho_17571" data-name="Caminho 17571" d="M227.822,80.473a10.836,10.836,0,1,0,10.835-10.836,10.835,10.835,0,0,0-10.835,10.836" transform="translate(-121.032 -51.077)" fill="#afdd83"/>
            <path id="Caminho_17572" data-name="Caminho 17572" d="M227.115,80.572a11.641,11.641,0,1,1,11.642,11.642,11.655,11.655,0,0,1-11.642-11.642m1.611,0a10.031,10.031,0,1,0,10.031-10.031,10.043,10.043,0,0,0-10.031,10.031" transform="translate(-121.131 -51.176)" fill="#afdd83"/>
            <path id="Caminho_17573" data-name="Caminho 17573" d="M140.488,81.993a23.221,23.221,0,1,0,23.221-23.221,23.22,23.22,0,0,0-23.221,23.221" transform="translate(-133.249 -52.597)" fill="#0e2201"/>
            <path id="Caminho_17574" data-name="Caminho 17574" d="M139.781,82.091a24.026,24.026,0,1,1,24.026,24.025,24.053,24.053,0,0,1-24.026-24.025m1.611,0a22.415,22.415,0,1,0,22.416-22.416,22.441,22.441,0,0,0-22.416,22.416" transform="translate(-133.348 -52.696)" fill="#0e2201"/>
          </g>
        </g>
        <g id="Grupo_245" data-name="Grupo 245" transform="translate(165.142 71.995)">
          <g id="Grupo_244" data-name="Grupo 244" clip-path="url(#clip-path-5)">
            <rect id="Retângulo_149" data-name="Retângulo 149" width="36.438" height="27.182" transform="translate(0 0)" fill="url(#radial-gradient-2)"/>
          </g>
        </g>
        <g id="Grupo_247" data-name="Grupo 247" transform="translate(152.901 60.818)">
          <g id="Grupo_246" data-name="Grupo 246" clip-path="url(#clip-path-2)">
            <path id="Caminho_17576" data-name="Caminho 17576" d="M144.169,81.478A19.025,19.025,0,1,1,163.194,100.5a19.046,19.046,0,0,1-19.025-19.023m1.611,0a17.414,17.414,0,1,0,17.414-17.414A17.433,17.433,0,0,0,145.78,81.478" transform="translate(-132.734 -52.082)" fill="#28510b"/>
            <path id="Caminho_17577" data-name="Caminho 17577" d="M151.353,80.473a10.836,10.836,0,1,0,10.836-10.836,10.836,10.836,0,0,0-10.836,10.836" transform="translate(-131.729 -51.077)" fill="#afdd83"/>
            <path id="Caminho_17578" data-name="Caminho 17578" d="M150.646,80.572a11.642,11.642,0,1,1,11.642,11.642,11.655,11.655,0,0,1-11.642-11.642m1.611,0a10.031,10.031,0,1,0,10.031-10.031,10.043,10.043,0,0,0-10.031,10.031" transform="translate(-131.828 -51.176)" fill="#afdd83"/>
          </g>
        </g>
        <g id="Grupo_249" data-name="Grupo 249">
          <g id="Grupo_248" data-name="Grupo 248" clip-path="url(#clip-path)">
            <path id="Caminho_17579" data-name="Caminho 17579" d="M158.887,190.371s-17.147-3.334-28.1,5.24-12.86,18.1-8.573,18.575,15.241-9.05,20.957-10.479,20.483-7.621,15.719-13.337" transform="translate(16.799 26.541)" fill="#fff"/>
            <path id="Caminho_17580" data-name="Caminho 17580" d="M122.219,215.089a2.991,2.991,0,0,1-2.651-2.309c-1.041-3.664,2.4-11.112,10.819-17.7,11.116-8.7,28.039-5.534,28.751-5.4l.282.054.185.22a4.24,4.24,0,0,1,.9,4.183c-1.646,5.042-12.392,9.289-17.041,10.451-2.461.616-6.112,2.916-9.642,5.139-4.387,2.763-8.543,5.381-11.2,5.381a3.82,3.82,0,0,1-.4-.022m9.159-18.743c-8.354,6.538-11.03,13.289-10.261,15.994a1.415,1.415,0,0,0,1.28,1.149c2.063.214,6.579-2.613,10.563-5.122,3.637-2.291,7.4-4.66,10.111-5.338,5.017-1.254,14.62-5.465,15.9-9.389a2.557,2.557,0,0,0-.43-2.427c-2.279-.378-17.4-2.511-27.163,5.133" transform="translate(16.7 26.439)" fill="#fff"/>
          </g>
        </g>
      </g>
    </g>
  </g>
</svg>
