<svg xmlns="http://www.w3.org/2000/svg" width="243.752" height="126.25" viewBox="0 0 243.752 126.25">
  <g id="pergunteme" transform="translate(-1083.903 -519.721)">
    <g id="Grupo_224" data-name="Grupo 224" transform="translate(237.594 -26.468) rotate(3)">
      <path id="Caminho_17581" data-name="Caminho 17581" d="M2.736-36.648C2.088-37.008.288-36,.288-35.136a10.964,10.964,0,0,0-1.8,1.872c-.5,1.08.648,1.44,1.8.864C.216-19.08.648-9.72,1.44-4.32q.108.864,1.08.216c.792-.5,1.224-1.08,1.152-1.728-.288-3.528-.5-7.92-.576-13.032,2.16-.5,4.248-2.088,6.336-4.824A8.7,8.7,0,0,0,11.3-30.6c-.576-2.952-2.736-6.192-4.68-6.552A6.81,6.81,0,0,0,2.736-36.648ZM3.1-20.16c-.072-2.232-.072-7.2-.144-14.9,1.512-1.152,2.736-1.512,3.528-1.008,1.152.792,2.088,3.528,2.16,5.832a8.98,8.98,0,0,1-1.152,4.9A22.057,22.057,0,0,1,3.1-20.16Zm14.112.648a1.518,1.518,0,0,0-.36.792c-.072.5.288.648,1.008.576a3.82,3.82,0,0,0,2.952-2.52,4.752,4.752,0,0,0,0-4.608c-.792-1.368-1.872-2.016-3.1-1.8-2.3.5-4.392,3.672-4.32,7.056A5.955,5.955,0,0,0,17.28-14.4c1.944.576,4.464-.432,5.976-2.952l.216-.576c.072-.432-.288-.648-.936-.576a3.167,3.167,0,0,0-2.52,1.656c-.648,1.224-1.872,1.944-2.52,1.44-.792-.5-1.224-1.584-1.368-3.24a9.493,9.493,0,0,1,1.224-5.976c1.008-1.584,2.232-1.008,2.016.288A15.74,15.74,0,0,1,17.208-19.512ZM36-23.4a2.831,2.831,0,0,0,.432.144.3.3,0,0,0,.216-.432,1.068,1.068,0,0,0-.936-.936c-3.024-.288-5.544.36-7.272,2.088l-.288.288c-.072-2.016,0-4.176.144-6.408.072-.432-.36-.576-1.152-.5-1.008.216-1.512.5-1.512,1.008A60.74,60.74,0,0,0,26.424-14.4a.456.456,0,0,0,.432.36,1.891,1.891,0,0,0,1.584-1.008c.5-.5.72-.864.72-1.08a8.344,8.344,0,0,1,1.8-4.968A5.575,5.575,0,0,1,36-23.4Zm9.792,6.48a1.267,1.267,0,0,0,.648-1.224c-.072-2.664-.648-4.32-1.584-5.184-1.872-1.584-4.968-1.44-6.192.648a9.692,9.692,0,0,0-1.152,8.064c.792,2.088,3.384,2.952,5.76,2.16l.648,7.7A22.815,22.815,0,0,1,43.344.432a29.3,29.3,0,0,0-.648,4.9c0-.576-.144-3.816.072-7.272-.072-.576-.5-.72-1.3-.5A2.238,2.238,0,0,0,39.96,0c.288,3.96,1.152,6.192,2.52,6.624q1.188.432,2.376-1.512a9.957,9.957,0,0,0,1.512-3.888,51.558,51.558,0,0,0-.216-11.376C45.936-12.528,45.792-14.832,45.792-16.92Zm-3.1,2.952c-1.08,1.152-2.16,1.3-2.376.432a10.119,10.119,0,0,1-.216-3.672c.36-3.24.864-5.184,1.584-5.76.072,0,.072,0,.144-.072q.756-.108,1.512,3.024a2.176,2.176,0,0,0-.36,1.152,34.535,34.535,0,0,0,.144,4.608ZM56.664-25.416c.144-1.08-3.456-.288-3.456.144A26.786,26.786,0,0,0,54.216-18.5c-.576.648-.576,1.3-.864,2.376l-.288,1.08c-.072.288-.144.36-.216.144A28.444,28.444,0,0,1,51.48-19.44a53.23,53.23,0,0,1-1.08-6.912q0-.756-1.512-.216c-.936.36-1.44.72-1.368,1.224A37.9,37.9,0,0,0,49.68-16.2a4.6,4.6,0,0,0,5.184,2.88c.432-.144.792-.576,1.152-1.368a7.959,7.959,0,0,0,3.456,2.952c.144.072.216.144.288.144.216,0,.072-.288-.5-.936l-.288-.36C57.456-15.264,56.736-19.44,56.664-25.416Zm9.5.864a33.815,33.815,0,0,0,1.44,9.5c.144.5.5.5,1.008.072a1.8,1.8,0,0,0,.864-1.584c-.144-1.728-.432-4.968-.72-6.7-.288-1.44-.72-2.448-1.512-2.736q-1.62-.54-3.888,2.592c.072-1.512.144-3.024.36-4.68.072-.432-.288-.576-1.08-.5q-1.4.108-1.512.864a64.058,64.058,0,0,0-.36,8.856q-.108.324,0,.432a36.259,36.259,0,0,0,.792,6.48c.072.432.432.5.936.144.792-.5,1.152-.936,1.08-1.44a41.327,41.327,0,0,1-.36-5.328l.216-.288C64.512-21.456,66.312-24.7,66.168-24.552ZM67.32-25.56c-.648.36-.648.792,0,1.512.648.648,1.152.936,1.512.792A10.856,10.856,0,0,0,70.7-24.12c.072,2.16.144,4.1.36,5.9.36,3.1.936,5.112,1.656,5.9,1.656,2.016,4.536,2.3,7.2.216.36-.36.288-.5-.288-.576a4.677,4.677,0,0,0-2.592.432.87.87,0,0,1-1.008-.072c-1.224-.936-2.16-3.744-2.52-8.424a35.377,35.377,0,0,1-.072-4.9c1.656-.936,2.952-1.512,3.744-1.944,1.3-.648-.432-2.232-1.152-2.088l-2.448,1.008c.144-2.808.432-5.9.864-9.216.072-.648-.36-1.008-1.224-.72a2.287,2.287,0,0,0-1.8,2.016c-.36,3.024-.648,6.12-.72,9.216Zm18.648,6.048a1.518,1.518,0,0,0-.36.792c-.072.5.288.648,1.008.576a3.82,3.82,0,0,0,2.952-2.52,4.752,4.752,0,0,0,0-4.608c-.792-1.368-1.872-2.016-3.1-1.8-2.3.5-4.392,3.672-4.32,7.056A5.955,5.955,0,0,0,86.04-14.4c1.944.576,4.464-.432,5.976-2.952l.216-.576c.072-.432-.288-.648-.936-.576a3.167,3.167,0,0,0-2.52,1.656c-.648,1.224-1.872,1.944-2.52,1.44-.792-.5-1.224-1.584-1.368-3.24a9.493,9.493,0,0,1,1.224-5.976c1.008-1.584,2.232-1.008,2.016.288A15.74,15.74,0,0,1,85.968-19.512Zm10.944-.864c-1.152.216-1.368.72-.576,1.584.648.792,1.224,1.08,1.728,1.008q2.484-.324,7.56-.432c3.384-.072,5.976-.216,7.7-.432,1.224-.144,1.368-.72.5-1.656-.72-.792-1.3-1.152-1.8-1.08-2.952.36-5.976.576-10.3.792Zm24.12-3.1a7.113,7.113,0,0,0-.648-1.08c-.648-.648-1.512-.648-2.592-.072-.144-1.368-.216-2.664-.288-3.744,0-.5-.432-.648-1.3-.36-.936.36-1.44.72-1.368,1.224.072,2.232.5,6.7.72,9.864.144,1.584.216,3.1.288,4.464.072.5.5.648,1.3.36.936-.288,1.44-.648,1.44-1.152-.072-1.44-.288-4.176-.648-8.136.432-.144.72-.36.792-.648l.144,1.008a52.478,52.478,0,0,0,2.088,9.5c.144.432.5.432,1.008,0,.648-.5,1.008-1.008.936-1.368l-.5-2.88c-.216-1.44-.432-2.52-.5-3.312l-.072-.072.216-.144q1.188-2.592,2.16-4.32c.72-1.3,1.08-1.8,1.152-1.512.072,1.152.432,4.608.792,7.2a27.506,27.506,0,0,0,.792,3.672c.144.5.5.576,1.08.144a1.889,1.889,0,0,0,1.008-1.728c-.072-.576-.216-1.8-.288-3.744a29.693,29.693,0,0,0-.5-4.608,3.753,3.753,0,0,0-1.44-2.376C125.28-28.3,123.048-26.424,121.032-23.472Zm13.752,3.96a1.518,1.518,0,0,0-.36.792c-.072.5.288.648,1.008.576a3.82,3.82,0,0,0,2.952-2.52,4.752,4.752,0,0,0,0-4.608c-.792-1.368-1.872-2.016-3.1-1.8-2.3.5-4.392,3.672-4.32,7.056a5.955,5.955,0,0,0,3.888,5.616c1.944.576,4.464-.432,5.976-2.952l.216-.576c.072-.432-.288-.648-.936-.576a3.167,3.167,0,0,0-2.52,1.656c-.648,1.224-1.872,1.944-2.52,1.44-.792-.5-1.224-1.584-1.368-3.24a9.493,9.493,0,0,1,1.224-5.976c1.008-1.584,2.232-1.008,2.016.288A15.74,15.74,0,0,1,134.784-19.512Z" transform="translate(882.181 554.004) rotate(-9)" fill="#2d0404"/>
      <path id="Caminho_17582" data-name="Caminho 17582" d="M6.984-26.424c0-.432-.36-.576-1.152-.432a1.077,1.077,0,0,0-1.08-.432C1.8-26.5-.072-22.9,0-18.864A4.57,4.57,0,0,0,3.312-14.4c1.368.216,2.664-.36,4.032-1.728a5.058,5.058,0,0,0,2.3,2.016c1.512.576,3.888-.5,4.824-2.808a.433.433,0,0,0,.072-.288c.072-.5-.36-.648-1.152-.576-1.08.072-1.728.5-1.944,1.152-.5,1.44-1.224,1.512-2.016.072A22.19,22.19,0,0,1,7.92-20.808,22.89,22.89,0,0,1,6.984-26.424ZM6.336-18a2.864,2.864,0,0,0-1.152.864,7.542,7.542,0,0,1-.576.792c-.864.864-1.368.864-1.584-.072a11.873,11.873,0,0,1-.216-4.464A10.493,10.493,0,0,1,4.32-25.128a32.872,32.872,0,0,0,1.944,6.84A.433.433,0,0,1,6.336-18ZM19.3-37.08c.072-.432-.36-.576-1.152-.5-1.08.144-1.656.432-1.656.936-.792,13.032-.5,22.824.864,29.3.072.5.432.5.936.144q1.188-.864,1.08-1.728A191.131,191.131,0,0,1,19.3-37.08Zm9.216,20.16a1.267,1.267,0,0,0,.648-1.224c-.072-2.664-.648-4.32-1.584-5.184-1.872-1.584-4.968-1.44-6.192.648a9.692,9.692,0,0,0-1.152,8.064c.792,2.088,3.384,2.952,5.76,2.16l.648,7.7A22.815,22.815,0,0,1,26.064.432a29.3,29.3,0,0,0-.648,4.9c0-.576-.144-3.816.072-7.272-.072-.576-.5-.72-1.3-.5A2.238,2.238,0,0,0,22.68,0c.288,3.96,1.152,6.192,2.52,6.624q1.188.432,2.376-1.512a9.957,9.957,0,0,0,1.512-3.888,51.558,51.558,0,0,0-.216-11.376C28.656-12.528,28.512-14.832,28.512-16.92Zm-3.1,2.952c-1.08,1.152-2.16,1.3-2.376.432a10.119,10.119,0,0,1-.216-3.672c.36-3.24.864-5.184,1.584-5.76.072,0,.072,0,.144-.072q.756-.108,1.512,3.024a2.176,2.176,0,0,0-.36,1.152,34.535,34.535,0,0,0,.144,4.608ZM39.384-25.416c.144-1.08-3.456-.288-3.456.144A26.786,26.786,0,0,0,36.936-18.5c-.576.648-.576,1.3-.864,2.376l-.288,1.08c-.072.288-.144.36-.216.144A28.443,28.443,0,0,1,34.2-19.44a53.23,53.23,0,0,1-1.08-6.912q0-.756-1.512-.216c-.936.36-1.44.72-1.368,1.224A37.9,37.9,0,0,0,32.4-16.2a4.6,4.6,0,0,0,5.184,2.88c.432-.144.792-.576,1.152-1.368a7.959,7.959,0,0,0,3.456,2.952c.144.072.216.144.288.144.216,0,.072-.288-.5-.936l-.288-.36C40.176-15.264,39.456-19.44,39.384-25.416Zm9.936,1.944a7.113,7.113,0,0,0-.648-1.08c-.648-.648-1.512-.648-2.592-.072-.144-1.368-.216-2.664-.288-3.744,0-.5-.432-.648-1.3-.36-.936.36-1.44.72-1.368,1.224.072,2.232.5,6.7.72,9.864.144,1.584.216,3.1.288,4.464.072.5.5.648,1.3.36.936-.288,1.44-.648,1.44-1.152-.072-1.44-.288-4.176-.648-8.136.432-.144.72-.36.792-.648l.144,1.008a52.477,52.477,0,0,0,2.088,9.5c.144.432.5.432,1.008,0,.648-.5,1.008-1.008.936-1.368l-.5-2.88c-.216-1.44-.432-2.52-.5-3.312l-.072-.072.216-.144q1.188-2.592,2.16-4.32c.72-1.3,1.08-1.8,1.152-1.512.072,1.152.432,4.608.792,7.2a27.505,27.505,0,0,0,.792,3.672c.144.5.5.576,1.08.144a1.889,1.889,0,0,0,1.008-1.728c-.072-.576-.216-1.8-.288-3.744a29.7,29.7,0,0,0-.5-4.608,3.753,3.753,0,0,0-1.44-2.376C53.568-28.3,51.336-26.424,49.32-23.472Zm15.264-2.952c0-.432-.36-.576-1.152-.432a1.077,1.077,0,0,0-1.08-.432C59.4-26.5,57.528-22.9,57.6-18.864A4.57,4.57,0,0,0,60.912-14.4c1.368.216,2.664-.36,4.032-1.728a5.058,5.058,0,0,0,2.3,2.016c1.512.576,3.888-.5,4.824-2.808a.433.433,0,0,0,.072-.288c.072-.5-.36-.648-1.152-.576-1.08.072-1.728.5-1.944,1.152-.5,1.44-1.224,1.512-2.016.072a22.191,22.191,0,0,1-1.512-4.248A22.89,22.89,0,0,1,64.584-26.424ZM63.936-18a2.864,2.864,0,0,0-1.152.864,7.542,7.542,0,0,1-.576.792c-.864.864-1.368.864-1.584-.072a11.873,11.873,0,0,1-.216-4.464,10.493,10.493,0,0,1,1.512-4.248,32.872,32.872,0,0,0,1.944,6.84A.433.433,0,0,1,63.936-18Z" transform="translate(894.002 596.68) rotate(-9)" fill="#2d0404"/>
      <path id="Caminho_17583" data-name="Caminho 17583" d="M5.616-21.888a1.379,1.379,0,0,0,.288.576q.54.756,1.3-.432a2.5,2.5,0,0,0-.144-3.168,3.481,3.481,0,0,0-3.672-1.152A3.75,3.75,0,0,0,.5-23.4,11.055,11.055,0,0,0,.36-17.64c.648,2.88,2.664,5.256,4.9,5.256,3.456,0,5.832-3.528,6.7-7.632.072-.5-.36-.72-1.152-.648A2.195,2.195,0,0,0,8.856-19.08a17.224,17.224,0,0,1-1.368,4.248c-.792,1.368-2.664,1.8-3.384.648-1.008-1.656-1.3-4.248-.936-7.776.288-2.3.576-3.6.936-3.816l.216.5A16.719,16.719,0,0,1,5.616-21.888ZM17.568-22.9a6.373,6.373,0,0,1,1.008,4.752c-.216,1.512-1.584,3.312-2.664,2.52-.36-.288-.216-1.8.36-4.608.288-1.224.5-2.232.792-3.168Zm-.216-1.368c.216-.72.432-1.08.576-1.152q.324,0,.216-.432-.108-.756-1.08-.432c-1.728.5-3.024,2.88-3.528,5.544-.576,2.88.5,5.9,2.52,6.264a4.589,4.589,0,0,0,5.256-4.536C21.168-21.024,19.872-22.752,17.352-24.264Zm8.208-8.208c0-.864-2.808-.144-2.808.072v2.52c0,.792,2.736.144,2.736-.144C25.488-30.816,25.488-31.68,25.56-32.472Zm.144,6.12c0-.5-.432-.72-1.224-.648-1.08.144-1.584.432-1.656.936a133.6,133.6,0,0,0-.432,14.616q.108.756,1.3.432c.936-.288,1.44-.648,1.44-1.152A116.918,116.918,0,0,1,25.7-26.352Zm8.424,2.232c.36.36.648.216.792-.432a1.465,1.465,0,0,0-.864-2.016c-2.952-1.224-4.968-1.08-6.192.5-1.008,1.368-.576,3.24,1.368,5.688a13.362,13.362,0,0,1,2.3,3.384,4.04,4.04,0,0,1,.432,1.584c0,.288.36,2.448-.432,2.736a1.774,1.774,0,0,1-2.016.288c-.648-.288-.72-.576-.216-.936q0-.216-1.512,0c-1.512.216-1.872.648-1.224,1.3A4.555,4.555,0,0,0,29.3-10.872a6.764,6.764,0,0,0,3.24-.288,4.288,4.288,0,0,0,2.448-5.616,32.323,32.323,0,0,0-1.944-2.952,12.372,12.372,0,0,1-1.8-3.024,3.9,3.9,0,0,1,0-2.88c.288-.576,1.8.216,2.736,1.3Zm8.5-2.3c0-.432-.36-.576-1.152-.432a1.077,1.077,0,0,0-1.08-.432c-2.952.792-4.824,4.392-4.752,8.424A4.57,4.57,0,0,0,38.952-14.4c1.368.216,2.664-.36,4.032-1.728a5.058,5.058,0,0,0,2.3,2.016c1.512.576,3.888-.5,4.824-2.808a.433.433,0,0,0,.072-.288c.072-.5-.36-.648-1.152-.576-1.08.072-1.728.5-1.944,1.152-.5,1.44-1.224,1.512-2.016.072a22.19,22.19,0,0,1-1.512-4.248A22.89,22.89,0,0,1,42.624-26.424ZM41.976-18a2.864,2.864,0,0,0-1.152.864,7.542,7.542,0,0,1-.576.792c-.864.864-1.368.864-1.584-.072a11.873,11.873,0,0,1-.216-4.464,10.493,10.493,0,0,1,1.512-4.248,32.872,32.872,0,0,0,1.944,6.84A.433.433,0,0,1,41.976-18Z" transform="translate(974.729 575.795) rotate(-9)" fill="#2d0404"/>
    </g>
    <g id="Grupo_227" data-name="Grupo 227" transform="translate(1242.392 553.246) rotate(14)">
      <path id="Caminho_1704" data-name="Caminho 1704" d="M.358.677c11.3-2.3,24.225,1.48,33.662,7.736C43.052,14.4,52.774,25.436,49.607,37.177c-1.153,4.276-4.85,7.835-9.434,5.751-4.257-1.936-5.49-6.877-3.4-10.893,5.641-10.842,21.878-5.7,29.6-.4A37.881,37.881,0,0,1,78.168,44.7C80.8,49.533,83.015,55.715,82.2,61.272a.832.832,0,0,1-1.594,0c-.715-4.174-1.066-8.191-2.688-12.165A35.559,35.559,0,0,0,70.64,37.993c-6.106-6.359-16.15-11.857-25.247-9.933-4.821,1.02-10.8,7.078-6.229,11.851,1.855,1.936,4.828,2.448,6.792.387,1.794-1.882,2.328-4.888,2.352-7.385.1-10.157-8.34-18.807-16.352-23.9a48.81,48.81,0,0,0-14.75-6.243C11.622,1.428,6.179,1.448.491,1.661A.5.5,0,0,1,.358.677" transform="translate(3.085 1.761)"/>
      <path id="Caminho_1705" data-name="Caminho 1705" d="M.334,2.945c11.61-5.418,25.393-3.02,35.552,4.418A51.035,51.035,0,0,1,48.212,20.532c3.4,5.153,6.825,11.377,7.2,17.661.262,4.383-2.03,11.489-7.718,10.541-5-.834-9.438-6.752-9.4-11.685.044-5.525,5.157-9.288,10.227-9.965,6.048-.808,12.447,1.711,17.621,4.662A44.539,44.539,0,0,1,87.858,62.66c.2,1.228-1.668,1.763-1.885.52A42.965,42.965,0,0,0,72.639,38.939,41.24,41.24,0,0,0,60.47,31.174c-5.121-2.1-11.6-3.754-16.578-.45-5.5,3.646-4.193,10.292.3,14.161,2.623,2.259,5.878,3.1,8.057-.26,1.769-2.731,1.616-6.376.88-9.415-2.358-9.737-9.36-19.423-17.149-25.566C26.211,1.941,12.624-1.167.984,4.057c-.746.335-1.4-.759-.65-1.112" transform="translate(0 0)"/>
      <path id="Caminho_1706" data-name="Caminho 1706" d="M1.246,4.083C3.275,5.709,5.081,7.657,6.953,9.459l2.658,2.558c.409.394,2.308,2.711,2.865,2.579.286-.068.864-3.123.973-3.518l.974-3.518c.633-2.288.955-5.2,2.336-7.158a.866.866,0,0,1,1.6.433,14,14,0,0,1-.98,4.7l-1.5,5.265c-.464,1.625-.759,5.617-2.809,6.176-1.959.535-3.981-2.782-5.128-3.938C5.36,10.443,2.533,7.946.2,5.128A.74.74,0,0,1,1.246,4.083" transform="translate(76.137 50.449)"/>
      <path id="Caminho_1707" data-name="Caminho 1707" d="M.977,3c1.8,2.136,3.057,4.809,4.6,7.142a67.541,67.541,0,0,0,5.844,7.8l-1.868.493c.871-2.9,1.623-5.84,2.211-8.813.572-2.89.494-6.184,1.5-8.936.292-.8,1.7-1.036,1.87,0,.453,2.755-.4,6-.925,8.714a80.4,80.4,0,0,1-2.5,9.629,1.133,1.133,0,0,1-2.043.267c-1.83-2.62-3.733-5.177-5.442-7.88C2.688,8.989.828,6.337.021,3.561-.132,3.037.6,2.556.977,3" transform="translate(77.022 51.189)"/>
      <path id="Caminho_1708" data-name="Caminho 1708" d="M1.447.585c3.861,6.1,7.691,12.23,11.621,18.29l-2.042.267c1.274-3.15,2.521-6.3,3.565-9.534C15.551,6.631,16.011,3.274,17.4.477A.977.977,0,0,1,19.2.966c-.009,3.23-1.441,6.663-2.461,9.695A91.3,91.3,0,0,1,13.067,20a1.126,1.126,0,0,1-1.93,0C7.521,13.756,3.8,7.568.115,1.362A.771.771,0,0,1,1.447.585" transform="translate(76.245 51.217)"/>
    </g>
  </g>
</svg>
